<svg version="1.1" id="Layer_1" xmlns="http://www.w3.org/2000/svg" xmlns:xlink="http://www.w3.org/1999/xlink" x="0px" y="0px"
	 width="100%" viewBox="0 0 850 850" enable-background="new 0 0 850 850" xml:space="preserve">
<path fill="#FFFFFF" opacity="1.000000" stroke="none" 
	d="
M562.000000,851.000000 
	C374.666718,851.000000 187.833450,851.000000 1.000125,851.000000 
	C1.000084,567.666809 1.000084,284.333618 1.000042,1.000315 
	C284.333099,1.000210 567.666199,1.000210 850.999512,1.000105 
	C850.999634,284.333038 850.999634,567.666077 850.999817,850.999512 
	C754.833313,851.000000 658.666687,851.000000 562.000000,851.000000 
M515.903625,400.026306 
	C556.838745,400.026306 597.773926,400.026306 638.757019,400.026306 
	C638.757019,275.101837 638.757019,150.705032 638.757019,26.243477 
	C596.778137,26.243477 555.042480,26.243477 512.881958,26.243477 
	C512.881958,83.007187 512.881958,139.529266 512.881958,196.506058 
	C511.484741,195.849045 510.595917,195.444702 509.718689,195.016617 
	C482.822327,181.890808 454.321136,174.578873 424.534119,173.188660 
	C410.676727,172.541931 396.667725,173.630188 382.809357,174.857117 
	C359.617767,176.910355 337.638885,183.791595 316.570221,193.561249 
	C282.471497,209.373016 253.892746,232.146133 231.149826,262.094421 
	C202.476273,299.852325 187.369125,342.598785 185.060120,389.850800 
	C184.225037,406.939972 185.684143,423.922150 188.777878,440.791534 
	C197.148087,486.432556 217.933945,525.587219 250.158463,558.749634 
	C267.342438,576.433777 287.302094,590.441833 308.124298,602.126099 
	C306.129456,602.193726 304.134613,602.319702 302.139740,602.320374 
	C264.988342,602.332092 227.836975,602.329041 190.685593,602.329041 
	C188.893402,602.329041 187.101212,602.329041 184.559433,602.329041 
	C185.060852,610.925964 185.118042,619.063904 186.072037,627.095276 
	C192.032715,677.277161 211.719910,721.343628 246.888641,757.745239 
	C300.197784,812.923157 365.623688,835.666077 441.586670,826.625244 
	C490.345184,820.822205 532.897217,800.365540 568.025940,766.001526 
	C625.019897,710.248352 647.769165,642.302673 634.789490,563.739624 
	C623.999023,498.427277 589.020203,448.006195 533.763672,411.660339 
	C527.603027,407.608093 521.234375,403.872223 515.903625,400.026306 
z"/>
<path fill="#000000" opacity="1.000000" stroke="none" 
	d="
M309.054413,601.952881 
	C287.302094,590.441833 267.342438,576.433777 250.158463,558.749634 
	C217.933945,525.587219 197.148087,486.432556 188.777878,440.791534 
	C185.684143,423.922150 184.225037,406.939972 185.060120,389.850800 
	C187.369125,342.598785 202.476273,299.852325 231.149826,262.094421 
	C253.892746,232.146133 282.471497,209.373016 316.570221,193.561249 
	C337.638885,183.791595 359.617767,176.910355 382.809357,174.857117 
	C396.667725,173.630188 410.676727,172.541931 424.534119,173.188660 
	C454.321136,174.578873 482.822327,181.890808 509.718689,195.016617 
	C510.595917,195.444702 511.484741,195.849045 512.881958,196.506058 
	C512.881958,139.529266 512.881958,83.007187 512.881958,26.243477 
	C555.042480,26.243477 596.778137,26.243477 638.757019,26.243477 
	C638.757019,150.705032 638.757019,275.101837 638.757019,400.026306 
	C597.773926,400.026306 556.838745,400.026306 515.208496,399.871185 
	C514.114746,399.143555 513.716003,398.571045 513.171570,397.557556 
	C512.287415,390.387909 512.033813,383.563171 510.722687,376.948059 
	C506.207001,354.165192 494.326630,335.474854 476.660767,320.843445 
	C456.468109,304.119324 432.863342,296.826660 406.534760,297.928802 
	C381.484039,298.977448 359.838226,308.108246 341.853943,325.184875 
	C316.150635,349.590881 306.537231,379.933990 311.087708,414.874420 
	C313.793365,435.649536 322.647430,453.704071 336.908112,468.860504 
	C356.920746,490.130127 381.663910,501.087585 411.022461,501.023193 
	C410.992065,500.993164 410.922363,500.943665 411.142456,501.314575 
	C411.574463,503.117889 411.970245,504.550140 411.971466,505.982758 
	C412.004791,545.434753 411.998779,584.886780 411.992249,624.338806 
	C411.992126,625.123352 411.908325,625.907959 411.833893,627.211975 
	C376.052063,625.238831 341.812347,618.641846 309.729126,602.115723 
	C309.505249,602.057312 309.054413,601.952881 309.054413,601.952881 
z"/>
<path fill="#010001" opacity="1.000000" stroke="none" 
	d="
M308.589355,602.039490 
	C309.054413,601.952881 309.505249,602.057312 309.748291,602.561157 
	C310.155975,618.449829 313.536499,633.067322 320.394714,646.865784 
	C342.951477,692.249146 394.334290,714.705505 444.000610,698.132263 
	C488.087830,683.420776 514.875122,643.908569 512.874329,597.482666 
	C511.389160,563.019958 495.163818,536.397644 466.649872,517.277954 
	C449.844330,506.009186 430.854279,501.765167 410.922363,500.943665 
	C410.922363,500.943665 410.992065,500.993164 410.998535,500.551697 
	C411.005005,458.761963 411.005005,417.413696 411.005005,375.060303 
	C425.384949,376.643829 439.139099,377.643616 452.715424,379.775909 
	C472.349670,382.859619 491.042603,389.267822 509.027863,397.746582 
	C510.230072,398.313324 511.877167,397.936493 513.317322,397.998535 
	C513.716003,398.571045 514.114746,399.143555 514.737793,399.852844 
	C521.234375,403.872223 527.603027,407.608093 533.763672,411.660339 
	C589.020203,448.006195 623.999023,498.427277 634.789490,563.739624 
	C647.769165,642.302673 625.019897,710.248352 568.025940,766.001526 
	C532.897217,800.365540 490.345184,820.822205 441.586670,826.625244 
	C365.623688,835.666077 300.197784,812.923157 246.888641,757.745239 
	C211.719910,721.343628 192.032715,677.277161 186.072037,627.095276 
	C185.118042,619.063904 185.060852,610.925964 184.559433,602.329041 
	C187.101212,602.329041 188.893402,602.329041 190.685593,602.329041 
	C227.836975,602.329041 264.988342,602.332092 302.139740,602.320374 
	C304.134613,602.319702 306.129456,602.193726 308.589355,602.039490 
z"/>
<path fill="#FFFDFD" opacity="1.000000" stroke="none" 
	d="
M513.171570,397.557556 
	C511.877167,397.936493 510.230072,398.313324 509.027863,397.746582 
	C491.042603,389.267822 472.349670,382.859619 452.715424,379.775909 
	C439.139099,377.643616 425.384949,376.643829 411.005005,375.060303 
	C411.005005,417.413696 411.005005,458.761963 411.028931,500.581726 
	C381.663910,501.087585 356.920746,490.130127 336.908112,468.860504 
	C322.647430,453.704071 313.793365,435.649536 311.087708,414.874420 
	C306.537231,379.933990 316.150635,349.590881 341.853943,325.184875 
	C359.838226,308.108246 381.484039,298.977448 406.534760,297.928802 
	C432.863342,296.826660 456.468109,304.119324 476.660767,320.843445 
	C494.326630,335.474854 506.207001,354.165192 510.722687,376.948059 
	C512.033813,383.563171 512.287415,390.387909 513.171570,397.557556 
z"/>
<path fill="#FEFEFE" opacity="1.000000" stroke="none" 
	d="
M411.142456,501.314575 
	C430.854279,501.765167 449.844330,506.009186 466.649872,517.277954 
	C495.163818,536.397644 511.389160,563.019958 512.874329,597.482666 
	C514.875122,643.908569 488.087830,683.420776 444.000610,698.132263 
	C394.334290,714.705505 342.951477,692.249146 320.394714,646.865784 
	C313.536499,633.067322 310.155975,618.449829 309.972198,602.619568 
	C341.812347,618.641846 376.052063,625.238831 411.833893,627.211975 
	C411.908325,625.907959 411.992126,625.123352 411.992249,624.338806 
	C411.998779,584.886780 412.004791,545.434753 411.971466,505.982758 
	C411.970245,504.550140 411.574463,503.117889 411.142456,501.314575 
z"/>
</svg>